<svg xmlns="http://www.w3.org/2000/svg" width="5.014" height="9.022" viewBox="0 0 5.014 9.022">
  <path id="Path_86" data-name="Path 86" d="M1225.983,635.27c-.087-.074-.148-.118-.2-.171q-1.812-1.809-3.623-3.62a.446.446,0,0,1-.153-.441.421.421,0,0,1,.7-.209c.1.089.189.187.284.281l3.83,3.826c.256.255.255.417,0,.675q-1.982,1.978-3.962,3.958a.444.444,0,0,1-.465.151.417.417,0,0,1-.219-.653,1.26,1.26,0,0,1,.117-.126q1.773-1.773,3.547-3.545C1225.868,635.358,1225.912,635.328,1225.983,635.27Z" transform="translate(-1221.993 -630.716)" fill="#5e6278"/>
</svg>
