<svg xmlns="http://www.w3.org/2000/svg" width="5.014" height="9.022" viewBox="0 0 5.014 9.022">
  <path id="Path_87" data-name="Path 87" d="M1066.977,635.27c.087-.074.148-.118.2-.171q1.812-1.809,3.624-3.62a.443.443,0,0,0,.152-.441.42.42,0,0,0-.7-.209c-.1.089-.189.187-.283.281l-3.831,3.826c-.256.255-.255.417,0,.675q1.98,1.978,3.961,3.958a.445.445,0,0,0,.465.151.417.417,0,0,0,.22-.653,1.255,1.255,0,0,0-.118-.126l-3.546-3.545C1067.092,635.358,1067.048,635.328,1066.977,635.27Z" transform="translate(-1065.953 -630.716)" fill="#5e6278"/>
</svg>
